<svg width="244" height="40" viewBox="0 0 244 40" fill="none" xmlns="http://www.w3.org/2000/svg">
<g clip-path="url(#clip0_21_418)">
<path d="M77.2476 5.37988H71.7773L61.0179 33.6685L60.9272 33.9254H64.8864L67.6367 26.7172H81.3126L84.0629 33.9254H88.0674L77.2929 5.50077L77.2476 5.37988ZM68.8305 23.5136L74.4822 8.64396L80.1037 23.5136H68.8305Z" fill="white"/>
<path d="M94.505 17.2122V12.3765H90.7876V33.9405H94.5503V25.9617C94.5503 21.5945 95.2757 18.9651 96.8775 17.4086C98.0562 16.2601 99.7185 15.7464 101.94 15.8219H103.058V12.1045H102.106C98.6153 12.1045 96.001 13.8725 94.505 17.2424V17.2122Z" fill="white"/>
<path d="M121.66 25.6139C121.222 29.3918 118.834 31.4621 114.951 31.4621C110.266 31.4621 107.984 28.742 107.984 23.1357C107.984 17.5293 110.312 14.8092 115.087 14.8092C118.729 14.8092 120.935 16.7133 121.464 20.3249L121.494 20.4912H125.03V20.2947C124.637 14.8244 120.98 11.6963 114.966 11.6963C108.423 11.6963 104.191 16.1995 104.191 23.1508C104.191 30.102 108.317 34.6052 114.966 34.6052C120.95 34.6052 125 31.0994 125.272 25.6593V25.4628H121.69V25.629L121.66 25.6139Z" fill="white"/>
<path d="M140.308 11.6813C136.576 11.6813 133.931 13.4947 132.405 17.0761V3.89893H128.642V33.9254H132.405V25.6443C132.405 18.5117 134.762 14.9001 139.417 14.9001C142.802 14.9001 144.313 16.653 144.313 20.5971V33.9103H148.075V20.2042C148.075 14.4618 145.537 11.6662 140.308 11.6662V11.6813Z" fill="white"/>
<path d="M172.087 23.9366C172.178 23.4077 172.178 22.9694 172.178 22.4254C172.178 15.8973 168.204 11.6963 162.038 11.6963C155.435 11.6963 151.339 16.0635 151.339 23.1054C151.339 30.1474 155.344 34.6052 162.038 34.6052C170.516 34.6052 171.906 28.9687 172.133 27.246L172.163 27.0344H168.702L168.672 27.1855C167.962 30.1474 165.771 31.6585 162.159 31.6585C157.671 31.6585 155.344 29.1953 155.072 24.1179H172.057L172.087 23.9668V23.9366ZM155.163 21.1712C155.631 16.7737 157.898 14.643 162.068 14.643C166.239 14.643 168.264 16.8342 168.476 21.1712H155.163Z" fill="white"/>
<path d="M180.64 7.6616H178.494L177.21 12.1044L172.948 13.1319L172.797 13.1622V15.4138H176.862V28.7723C176.862 31.9457 177.739 33.9102 182.136 33.9102H187.319V30.7821H180.625V15.3987H187.607V12.3461H180.625V7.64648L180.64 7.6616Z" fill="white"/>
<path d="M202.824 11.6813C199.091 11.6813 196.447 13.4947 194.92 17.0761V3.89893H191.158V33.9254H194.92V25.6443C194.92 18.5117 197.278 14.9001 201.932 14.9001C205.317 14.9001 206.828 16.653 206.828 20.5971V33.9103H210.591V20.2042C210.591 14.4618 208.052 11.6662 202.824 11.6662V11.6813Z" fill="white"/>
<path d="M218.887 12.3613H215.125V33.9254H218.887V12.3613Z" fill="white"/>
<path d="M219.356 5.37988H214.611V9.27864H219.356V5.37988Z" fill="white"/>
<path d="M239.832 25.4477V25.6139C239.364 29.3918 236.991 31.4621 233.092 31.4621C228.408 31.4621 226.126 28.742 226.126 23.1357C226.126 17.5293 228.453 14.8092 233.228 14.8092C236.87 14.8092 239.076 16.7133 239.605 20.3249L239.636 20.4912H243.172V20.2947C242.779 14.8244 239.122 11.6963 233.092 11.6963C226.549 11.6963 222.318 16.1995 222.318 23.1508C222.318 30.102 226.443 34.6052 233.092 34.6052C239.076 34.6052 243.126 31.0994 243.398 25.6593V25.4628H239.817L239.832 25.4477Z" fill="white"/>
<path d="M19.235 0.528901L1.97772 17.7257C1.29771 18.4057 0.919922 19.3275 0.919922 20.2947V25.0548C0.919922 26.0219 1.29771 26.9437 1.97772 27.6237L4.592 30.2229C5.43824 31.0691 6.85872 30.8727 7.44807 29.83L22.8617 2.70495C23.5418 1.49603 22.6804 0 21.2902 0H20.5195C20.0359 0 19.5826 0.196449 19.235 0.528901Z" fill="white"/>
<path d="M46.8136 17.7257L29.5564 0.528901C29.2239 0.196449 28.7554 0 28.287 0H27.5163C26.1261 0 25.2496 1.49603 25.9447 2.70495L41.3584 29.83C41.9477 30.8727 43.3682 31.054 44.2145 30.2229L46.8287 27.6237C47.5088 26.9437 47.8865 26.0219 47.8865 25.0548V20.2947C47.8865 19.3275 47.5088 18.4057 46.8287 17.7257H46.8136Z" fill="white"/>
<path d="M13.3418 38.9423C14.0218 39.6223 14.9436 40.0001 15.8956 40.0001H32.8809C33.8329 40.0001 34.7547 39.6223 35.4347 38.9423L39.3939 34.9982C40.5424 33.8649 39.7263 31.9004 38.1094 31.9004H10.667C9.05011 31.9004 8.2492 33.8498 9.38256 34.9982L13.3418 38.9423Z" fill="white"/>
<path d="M6.26953 31.9004H6.28464L6.26953 31.8853V31.9004Z" fill="white"/>
</g>
<defs>
<clipPath id="clip0_21_418">
<rect width="242.493" height="40" fill="white" transform="translate(0.919922)"/>
</clipPath>
</defs>
</svg>
