<svg width="48" height="40" viewBox="0 0 48 40" fill="none" xmlns="http://www.w3.org/2000/svg">
<path d="M19.235 0.528901L1.97772 17.7257C1.29771 18.4057 0.919922 19.3275 0.919922 20.2947V25.0548C0.919922 26.0219 1.29771 26.9437 1.97772 27.6237L4.592 30.2229C5.43824 31.0691 6.85872 30.8727 7.44807 29.83L22.8617 2.70495C23.5418 1.49603 22.6804 0 21.2902 0H20.5195C20.0359 0 19.5826 0.196449 19.235 0.528901Z" fill="white"/>
<path d="M46.8136 17.7257L29.5564 0.528901C29.2239 0.196449 28.7554 0 28.287 0H27.5163C26.1261 0 25.2496 1.49603 25.9447 2.70495L41.3584 29.83C41.9477 30.8727 43.3682 31.054 44.2145 30.2229L46.8287 27.6237C47.5088 26.9437 47.8865 26.0219 47.8865 25.0548V20.2947C47.8865 19.3275 47.5088 18.4057 46.8287 17.7257H46.8136Z" fill="white"/>
<path d="M13.3418 38.9423C14.0218 39.6223 14.9436 40.0001 15.8956 40.0001H32.8809C33.8329 40.0001 34.7547 39.6223 35.4347 38.9423L39.3939 34.9982C40.5424 33.8649 39.7263 31.9004 38.1094 31.9004H10.667C9.05011 31.9004 8.2492 33.8498 9.38256 34.9982L13.3418 38.9423Z" fill="white"/>
<path d="M6.26953 31.9004H6.28464L6.26953 31.8853V31.9004Z" fill="white"/>
</svg>
